<svg height="110" viewBox="0 0 110 110" width="110" xmlns="http://www.w3.org/2000/svg"><g fill="#fff"><path d="m52.4189 17.2605c0 1.2041.9761 2.1801 2.1801 2.1801s2.1801-.976 2.1801-2.1801v-13.08042c0-1.20403-.9761-2.18008-2.1801-2.18008s-2.1801.97605-2.1801 2.18008z"/><path d="m80.3044 29.9731c-.8514-.8514-.8514-2.2318 0-3.0831l9.2492-9.2493c.8514-.8514 2.2318-.8514 3.0831 0 .8514.8514.8514 2.2317 0 3.0831l-9.2493 9.2493c-.8513.8513-2.2317.8513-3.083 0z"/><path d="m29.5777 30.4864c-.8514.8513-2.2317.8513-3.0831 0l-9.2493-9.2493c-.8513-.8514-.8513-2.2318 0-3.0831.8514-.8514 2.2318-.8514 3.0831 0l9.2493 9.2493c.8514.8513.8514 2.2317 0 3.0831z"/><path clip-rule="evenodd" d="m55.0675 28.8841c14.4483 0 26.161 11.7126 26.161 26.1609s-11.7127 26.1609-26.161 26.1609c-14.4482 0-26.1609-11.7126-26.1609-26.1609s11.7127-26.1609 26.1609-26.1609zm0 4.3602c12.0403 0 21.8008 9.7605 21.8008 21.8007 0 12.0403-9.7605 21.8008-21.8008 21.8008-12.0402 0-21.8007-9.7605-21.8007-21.8008 0-12.0402 9.7605-21.8007 21.8007-21.8007z" fill-rule="evenodd"/><path d="m4.18008 53.2096c-1.20403 0-2.18008.9761-2.18008 2.1801s.97605 2.1801 2.18008 2.1801h13.08042c1.2041 0 2.1801-.9761 2.1801-2.1801s-.976-2.1801-2.1801-2.1801z"/><path d="m88.7629 92.3593c.8514.8514 2.2318.8514 3.0831 0 .8514-.8514.8514-2.2317 0-3.0831l-9.2493-9.2493c-.8513-.8513-2.2317-.8513-3.0831 0-.8513.8514-.8513 2.2318 0 3.0831z"/><path d="m108 55.2033c0 1.204-.976 2.1801-2.18 2.1801h-13.0805c-1.2041 0-2.1801-.9761-2.1801-2.1801s.976-2.1801 2.1801-2.1801h13.0805c1.204 0 2.18.9761 2.18 2.1801z"/><path d="m17.0477 92.0437c-.8514-.8514-.8514-2.2317 0-3.0831l9.2492-9.2493c.8514-.8514 2.2318-.8514 3.0831 0 .8514.8514.8514 2.2317 0 3.0831l-9.2493 9.2493c-.8513.8514-2.2317.8514-3.083 0z"/><path d="m52.4189 105.82c0 1.204.9761 2.18 2.1801 2.18s2.1801-.976 2.1801-2.18v-13.0805c0-1.2041-.9761-2.1801-2.1801-2.1801s-2.1801.976-2.1801 2.1801z"/></g><path d="m52.4189 17.2605c0 1.2041.9761 2.1801 2.1801 2.1801s2.1801-.976 2.1801-2.1801v-13.08042c0-1.20403-.9761-2.18008-2.1801-2.18008s-2.1801.97605-2.1801 2.18008z" stroke="#fff" stroke-linecap="round" stroke-linejoin="round" stroke-width="3.53333"/><path d="m80.3044 29.9731c-.8514-.8514-.8514-2.2318 0-3.0831l9.2492-9.2493c.8514-.8514 2.2318-.8514 3.0831 0 .8514.8514.8514 2.2317 0 3.0831l-9.2493 9.2493c-.8513.8513-2.2317.8513-3.083 0z" stroke="#fff" stroke-linecap="round" stroke-linejoin="round" stroke-width="3.53333"/><path d="m29.5777 30.4864c-.8514.8513-2.2317.8513-3.0831 0l-9.2493-9.2493c-.8513-.8514-.8513-2.2318 0-3.0831.8514-.8514 2.2318-.8514 3.0831 0l9.2493 9.2493c.8514.8513.8514 2.2317 0 3.0831z" stroke="#fff" stroke-linecap="round" stroke-linejoin="round" stroke-width="3.53333"/><path d="m55.0675 28.8841c14.4483 0 26.161 11.7126 26.161 26.1609s-11.7127 26.1609-26.161 26.1609c-14.4482 0-26.1609-11.7126-26.1609-26.1609s11.7127-26.1609 26.1609-26.1609zm0 4.3602c12.0403 0 21.8008 9.7605 21.8008 21.8007 0 12.0403-9.7605 21.8008-21.8008 21.8008-12.0402 0-21.8007-9.7605-21.8007-21.8008 0-12.0402 9.7605-21.8007 21.8007-21.8007z" style="fill-rule:evenodd;clip-rule:evenodd;stroke:#fff;stroke-width:3.53333;stroke-linecap:round;stroke-linejoin:round"/><path d="m4.18008 53.2096c-1.20403 0-2.18008.9761-2.18008 2.1801s.97605 2.1801 2.18008 2.1801h13.08042c1.2041 0 2.1801-.9761 2.1801-2.1801s-.976-2.1801-2.1801-2.1801z" stroke="#fff" stroke-linecap="round" stroke-linejoin="round" stroke-width="3.53333"/><path d="m88.7629 92.3593c.8514.8514 2.2318.8514 3.0831 0 .8514-.8514.8514-2.2317 0-3.0831l-9.2493-9.2493c-.8513-.8513-2.2317-.8513-3.0831 0-.8513.8514-.8513 2.2318 0 3.0831z" stroke="#fff" stroke-linecap="round" stroke-linejoin="round" stroke-width="3.53333"/><path d="m108 55.2033c0 1.204-.976 2.1801-2.18 2.1801h-13.0805c-1.2041 0-2.1801-.9761-2.1801-2.1801s.976-2.1801 2.1801-2.1801h13.0805c1.204 0 2.18.9761 2.18 2.1801z" stroke="#fff" stroke-linecap="round" stroke-linejoin="round" stroke-width="3.53333"/><path d="m17.0477 92.0437c-.8514-.8514-.8514-2.2317 0-3.0831l9.2492-9.2493c.8514-.8514 2.2318-.8514 3.0831 0 .8514.8514.8514 2.2317 0 3.0831l-9.2493 9.2493c-.8513.8514-2.2317.8514-3.083 0z" stroke="#fff" stroke-linecap="round" stroke-linejoin="round" stroke-width="3.53333"/><path d="m52.4189 105.82c0 1.204.9761 2.18 2.1801 2.18s2.1801-.976 2.1801-2.18v-13.0805c0-1.2041-.9761-2.1801-2.1801-2.1801s-2.1801.976-2.1801 2.1801z" stroke="#fff" stroke-linecap="round" stroke-linejoin="round" stroke-width="3.53333"/></svg>